<svg xmlns="http://www.w3.org/2000/svg" viewBox="0 0 512 512" width="512" height="512">
  <defs>
    <linearGradient id="bg" x1="0" y1="0" x2="1" y2="1">
      <stop offset="0%" stop-color="#0f172a"/>
      <stop offset="100%" stop-color="#1e293b"/>
    </linearGradient>
  </defs>
  <rect width="512" height="512" rx="112" ry="112" fill="url(#bg)"/>
  <rect x="8" y="8" width="496" height="496" rx="108" ry="108" fill="none" stroke="#4ade80" stroke-width="6" opacity="0.6"/>
  <g transform="translate(96,96) scale(5)">
    <line x1="32" y1="2" x2="32" y2="10" stroke="#4ade80" stroke-width="2.5" stroke-linecap="round"/>
    <circle cx="32" cy="2" r="3.5" fill="#4ade80"/>
    <rect x="8" y="10" width="48" height="36" rx="12" fill="#1e293b" stroke="#4ade80" stroke-width="2"/>
    <rect x="14" y="18" width="14" height="12" rx="4" fill="#0ea5e9"/>
    <rect x="36" y="18" width="14" height="12" rx="4" fill="#0ea5e9"/>
    <circle cx="21" cy="24" r="4" fill="white" opacity=".95"/>
    <circle cx="43" cy="24" r="4" fill="white" opacity=".95"/>
    <circle cx="23" cy="22" r="1.5" fill="#0f172a"/>
    <circle cx="45" cy="22" r="1.5" fill="#0f172a"/>
    <rect x="16" y="34" width="32" height="7" rx="3.5" fill="#0f172a"/>
    <rect x="18" y="35.5" width="6" height="4" rx="1.5" fill="#4ade80"/>
    <rect x="26" y="35.5" width="6" height="4" rx="1.5" fill="#4ade80"/>
    <rect x="34" y="35.5" width="6" height="4" rx="1.5" fill="#4ade80"/>
    <rect x="42" y="35.5" width="4" height="4" rx="1.5" fill="#22d3ee"/>
    <rect x="26" y="46" width="12" height="6" rx="2.5" fill="#334155"/>
    <rect x="10" y="52" width="44" height="12" rx="8" fill="#1e293b" stroke="#4ade80" stroke-width="1.5"/>
    <circle cx="32" cy="58" r="3.5" fill="#4ade80" opacity=".85"/>
  </g>
</svg>
